<?xml version="1.0"?><svg version="1.2" baseProfile="tiny-ps" viewBox="0 0 300 300" xmlns="http://www.w3.org/2000/svg" xmlns:xlink="http://www.w3.org/1999/xlink"><title>Cyberspective</title><g><g fill="#ddc347" transform="matrix(.1 0 0 -.1 0 300)"><path d="M0 1500V0h3000v3000H0V1500z"/></g><g fill="#d2b638" transform="matrix(.1 0 0 -.1 0 300)"><path d="M0 1500V0h3000v3000H0V1500zm1779 1241c166-52 285-188 345-395l26-88 8-84 8-84h-206v30c0 17-7 66-16 108l-15 77-30 64c-16 36-45 83-63 105l-34 41-51 30-51 30v185h9c5 0 37-9 70-19zm34-320 24-9 27-66c14-37 26-76 26-88v-21l-61 7c-34 3-77 6-95 6h-34v180h44c25 0 56-4 69-9zm452-70 81-40 42-40c69-67 97-142 108-288l7-83h-203v8c0 4-5 38-10 75-11 73-29 118-64 155l-21 24-17 91c-9 51-20 102-24 115l-6 22h13c7 0 49-18 94-39zm384-463c16-48 38-126 46-174l17-87v-252l-12-65c-6-36-21-99-33-140l-22-75-6 49-5 49 13 50c7 27 17 97 23 156l11 105-6 66c-10 107-34 227-60 298-13 37-27 92-30 122l-6 55 19-35c11-19 34-74 51-122zm-709-298 215-10 66-14 66-14 61-31 61-31 36-35c46-46 73-102 91-184l14-66v-200l-15-68-14-67-32-61-33-61-40-35c-23-19-57-43-76-53-43-22-179-64-186-57-3 2 7 44 21 92s25 94 25 101v14l23 9c52 20 90 87 108 186l12 68-6 71-5 71-15 35c-29 67-79 106-176 136l-46 14-120 10c-66 5-155 10-197 10h-78v180h13c6-1 109-5 227-10zm230-694c0-50-33-194-61-267-38-97-95-187-161-250l-52-50-71-34c-38-19-82-37-97-41l-28-6v179l53 36c62 43 98 87 138 168l30 61 19 76c10 43 21 94 25 115l6 37h199v-24zm-284-163c-4-16-20-56-37-90l-30-63h-13c-7 0-34-3-60-6l-46-7v182l63 4c34 2 77 4 96 5l33 2-6-27z"/></g><g fill="#caac2d" transform="matrix(.1 0 0 -.1 0 300)"><path d="M0 1500V0h3000v3000H0V1500zm1750 1254c30-9 77-28 104-41l50-25 58-56 59-56 34-56c56-92 94-227 108-382l5-48h-206l-6 58c-10 84-43 200-74 255l-26 49-54 49-53 49-66 20-65 20h-154l-57-15c-63-16-96-34-142-76l-30-27-114-8-114-7 24 43c31 57 111 143 165 181 52 35 155 76 227 89l52 9 110-4 110-4 55-17zm94-361c18-38 56-141 56-152 0-4-42-3-92 2l-93 9-310-6c-170-4-336-10-367-14l-58-8v175l34 6c70 14 269 22 537 24l275 1 18-37zm437-48c30-15 73-43 96-61l42-35 30-62 30-62 11-65c5-36 10-86 10-112v-48h-199l-6 38c-3 20-10 61-16 90l-11 52-32 43-32 42-13 75c-8 41-19 94-26 117l-13 41 37-13c21-7 62-25 92-40zm-1151-159c0-3-9-42-20-88-10-46-27-137-36-203l-17-120 1-260 1-260 16-135c9-74 25-172 36-218 10-46 19-85 19-88 0-6-70-5-112 2l-38 7v1356l38 4c59 6 112 7 112 3zm1545-378 25-93 11-108 11-108-12-112-12-112-24-83c-13-45-25-86-25-90-1-4-5 13-9 38l-7 45 19 90 19 90v135l1 135-17 80c-9 44-28 114-42 155-13 41-26 97-29 125l-4 50 35-72 35-72 25-93zm-670-218 160-9 80-21 80-20 55-34 55-34 32-41c17-22 41-66 53-98l22-58 6-120 5-121-13-73-12-72-34-69-35-69-45-40-45-40-73-30c-40-17-92-33-114-37l-42-7 14 34c8 19 22 66 31 106l17 71 37 24 36 23 22 45 23 45 11 80 11 80-7 55c-4 30-15 73-24 95l-18 40-36 32-37 32-67 21-68 22-195 8c-107 5-329 9-492 10h-298v185l372-3c205-1 445-6 533-12zm161-735c-4-35-18-104-32-152l-25-87-39-76-40-75-45-52-45-52-61-40-61-41-81-26-82-27h-250l-47 11c-26 7-72 21-102 33l-56 20-58 44-59 44-45 68c-25 37-48 74-53 81l-7 14 128-8 128-7 24-29c70-83 228-119 373-84l57 13 45 26 45 27 42 47 43 48 28 60c31 64 69 201 69 245 0 15 3 30 7 33 3 4 51 7 106 7h100l-7-65zm-645-100h377l-24-63c-13-35-33-77-45-94l-22-31-381 7c-210 3-396 9-413 12l-33 6v178l83-7c45-5 251-8 458-8z"/></g><g fill="#948128" transform="matrix(.1 0 0 -.1 0 300)"><path d="M0 1500V0h3000v3000H0V1500zm1713 1265 68-14 67-33 67-33 56-56 57-57 35-63c54-98 86-215 101-361l6-58h-209l-6 48c-3 26-13 79-22 117l-15 70-29 58c-16 32-46 75-65 97l-36 40-66 32-67 33h-220l-54-19-54-19-42-38-42-39-119-10c-65-5-120-7-122-5s17 35 42 74l47 70 47 42 47 42 71 34 70 34 65 13 64 14 95 1 95 1 68-15zm124-354c13-18 49-111 59-154l7-28-39 8-39 8-335-1-335-2-111-15-110-16-57-19c-96-34-151-86-177-167l-13-40-1-90v-90l26-56 25-56 32-22 31-22v-210l-22 6c-13 4-51 19-85 35l-62 28-45 42-46 43-30 61-29 61-12 87-11 86 11 90c34 278 155 377 520 428l116 16 190 8 190 8 170-6 170-5 12-16zm495-93c27-17 64-49 83-71l35-41 21-66 20-65 6-87 6-88h-210l-6 69-6 69-21 42c-11 22-29 49-39 59l-19 19-12 71c-6 39-18 93-25 121l-13 49 66-25c37-14 88-39 114-56zm-1196-135c-27-95-38-142-52-228l-16-100-5-245-5-245 11-145c12-150 31-277 55-368 8-28 11-52 8-52-19 0-190 21-208 25l-21 5-16 82c-9 46-22 128-28 183l-12 100-1 280v280l12 97c13 104 50 288 61 307l7 11 90 14c49 8 97 14 107 15l18 1-5-17zm1475-190c34-78 66-176 85-265l17-83 1-135 1-135-14-73c-7-40-23-105-35-145l-23-72-7 51-7 51 16 59 17 59 5 155 5 155-16 85c-9 47-29 126-46 175l-30 89v38c0 21 2 38 5 38 2 0 14-21 26-47zM404 1683c3-21 5-101 5-178l-1-140 15-67 14-67-15-6-15-6-8 8c-3 4-12 39-18 76l-12 69v119c0 66 3 144 6 174l7 55h8c5 0 11-17 14-37zm1456-87 235-5 90-16 90-16 61-28 61-29 40-35 39-36 26-53c14-29 31-77 37-106l11-53v-108c0-122-9-181-40-263l-21-57-46-51-46-51-58-29c-49-25-199-75-199-66 0 2 9 28 19 58 10 31 24 81 31 112l11 56h16c8 0 30 15 48 33l33 33 17 59 18 59v204l-24 48-24 48-37 29-36 29-69 20-68 20-487 11-488 10v185l263-4c144-2 368-6 497-8zM682 1053l4-98 23-48 23-48 51-29 50-28 86-16 86-16 175-11 175-11 255 5c141 3 263 9 273 13l18 7-7-29c-3-16-22-62-41-103l-35-73-416 5-417 5-110 21c-136 25-186 42-251 86l-51 35-32 45c-17 24-41 71-52 102l-20 58-6 113-6 112h221l4-97zm1485-190c-3-38-15-103-26-146l-20-78-43-87-43-87-70-71-70-71-61-31c-33-17-87-38-120-48l-59-19h-270l-75 23c-89 28-148 61-209 116-43 39-121 149-121 169v10l127-7 127-7 34-35c18-19 51-43 72-54l39-20 75-11 75-11 67 11 67 12 51 26 51 25 46 48 46 49 31 63 31 64 21 85c11 46 20 96 20 110s3 29 7 32c3 4 51 7 106 7h100l-6-67z"/></g><g fill="#574c17" transform="matrix(.1 0 0 -.1 0 300)"><path d="M0 1500V0h3000v3000H0V1500zm1728 1265c34-8 90-29 124-46l62-31 62-62 62-62 32-64c55-109 81-201 95-342l7-68h-222v43c0 23-7 72-15 109l-14 68-31 64-30 64-43 44-42 44-47 22-48 22-67 10-67 9-74-9-73-10-47-20c-26-12-63-36-82-54l-35-34-117-6-118-6v8c0 5 17 35 38 68l38 59 59 53 58 53 50 25c27 14 81 34 121 44l71 19h115l115 1 63-15zm42-332 63-6 29-63c16-34 31-77 34-95l6-34h-817l-94-18-94-18-63-30-64-30-26-34c-14-19-32-55-40-81l-14-47v-163l16-47 16-47 44-39 44-39v-204l-32 6c-18 3-61 20-95 36l-62 31-45 43-44 44-22 42c-12 23-28 72-36 109l-14 66v70c0 89 15 181 41 249l20 54 42 48c23 26 62 60 87 76l45 29 75 23 75 24 114 17c191 28 658 44 811 28zm497-78 72-33 46-43 47-43 19-38c26-50 47-147 51-233l3-70-106-3-106-3-6 69-6 69-16 39c-9 22-27 51-41 65l-25 26-10 64c-9 58-21 112-36 162l-5 19 24-7c12-4 55-22 95-40zm-1127-163c0-5-6-31-14-58-26-87-44-206-57-359l-11-150 6-215 7-215 15-115c13-103 34-210 50-264l6-19-73 7c-41 3-95 9-121 12l-47 6-11 52c-6 28-18 101-27 161l-16 110-1 320-1 320 13 95c14 107 50 271 62 283 9 10 140 35 188 36l32 1v-8zm1520-322 30-89 15-98 15-98v-85c0-138-38-343-76-409l-15-26 4 80c2 44 12 123 22 175l17 95-5 135-6 135-15 61c-8 34-26 95-40 135l-24 74-5 60-6 60 30-58c16-31 43-98 59-147zM405 1703c4-21 7-101 6-178l-1-140 14-75 14-75-15-12c-9-7-19-10-23-8-11 7-30 121-37 228l-6 93 13 102 12 102h8c4 0 11-17 15-37zm1410-103 320-10 65-14c36-8 92-24 124-36l60-23 57-56 57-56 21-58 21-58 10-92 11-93-11-91c-15-138-52-226-123-295l-42-41-60-28c-59-28-175-63-182-55-3 2 7 42 21 87 13 46 27 95 30 109l5 26 35 16 34 17 28 58 29 58v260l-23 43-23 43-46 29-45 29-72 17-71 17-470 7c-259 4-471 8-472 8-2 1-3 45-3 97v95h198c108-1 341-5 517-10zM682 1057l5-92 20-45 20-46 32-27 32-27 52-15c29-8 106-22 172-30l120-16h338c187 0 359 3 383 7l44 6v-10c0-21-51-147-68-170l-18-23-185-6-184-5-240 11-240 11-85 15c-47 8-114 24-150 35l-65 21-48 35c-58 42-100 98-128 173l-21 56-6 118-5 117h220l5-93zm1498-134c0-35-34-207-51-255-81-242-231-388-446-433l-68-15h-190l-70 15-69 15-71 33-70 34-47 46c-45 43-107 130-122 171l-6 19 37-7c21-3 77-6 125-6h87l55-49 56-48 56-18 55-17 102 4 102 3 57 28 57 28 54 59 54 58 31 74c29 69 62 202 62 248v20h220v-7z"/></g><g fill="#080701" transform="matrix(.1 0 0 -.1 0 300)"><path d="M0 1500V0h3000v3000H0V1500zm1745 1264c33-9 86-30 118-47l59-31 59-60 60-60 40-80 39-81 20-79c11-44 23-117 27-163l6-83h-223v35c0 20-7 71-16 113l-15 77-29 62-28 62-42 45-42 46-57 27-56 28h-250l-55-26c-30-14-68-39-85-55l-30-29-125-11c-69-6-127-10-129-8-9 8 69 122 119 174l55 56 55 31c66 37 135 60 215 73l60 9 95-4 95-5 60-16zm81-332c17-10 50-79 68-141 9-30 16-55 16-56s-137 1-304 3l-304 5-146-12-147-12-74-19c-129-33-197-83-226-167l-14-38v-100l1-100 21-46 21-46 36-28 36-27v-109c0-60-2-109-4-109-3 0-36 11-73 25l-69 26-48 37c-27 20-62 53-78 72l-28 36-22 59-21 60-5 120-4 120 16 68c39 167 121 257 285 312l70 24 108 16c159 24 296 32 603 33l275 2 11-8zm454-79 74-36 47-47 46-46 21-55c20-56 42-180 42-245v-34h-217l-7 58c-4 31-11 74-17 94l-10 37-34 46-35 45v23c0 12-9 62-20 111-11 50-20 92-20 94 0 10 60-11 130-45zm-1150-217c-30-105-49-242-59-401l-8-150 8-225c8-235 15-302 51-463 11-53 19-99 17-101-5-4-141 9-200 19l-39 7-10 36c-5 21-17 87-27 147l-18 110v710l13 85c8 47 22 123 33 170l20 84 11 7c7 4 50 13 97 19 47 7 93 13 101 14 27 4 28-3 10-68zm1509-200c21-56 47-137 58-181l18-80-1-185-1-185-25-97c-15-53-33-109-42-125l-16-28 3 90c2 50 11 137 21 195l18 105-6 105c-6 118-25 218-60 324l-24 71-7 65-6 65 16-19c8-11 33-65 54-120zM408 1703l11-58-5-100-6-100 16-104 16-104-11-14c-6-7-17-13-24-13h-12l-12 58c-7 31-15 111-18 176l-6 119 13 98c7 55 15 99 19 99s12-26 19-57zm1547-103 200-10 78-20 78-20 61-32 61-32 38-49 39-49 22-71 23-72v-140l-1-140-21-70c-12-38-35-91-51-116l-29-45-46-38-46-38-74-29c-41-15-93-31-115-35l-42-7 25 72c13 39 27 91 31 116l6 45h31l36 38 36 38 13 40c7 21 16 80 19 130l6 91-13 53-13 52-30 35c-39 44-92 71-181 90l-71 15-465 7-465 6-3 89c-2 49-1 94 1 100l4 11 329-2c181-2 419-7 529-13zM684 1063l7-98 23-51 24-52 46-27 46-27 113-21 112-21h426l426-1-17-51c-21-61-47-113-68-137l-15-17h-582l-141 10-141 10-103 20-103 19-63 30-62 29-42 43c-48 49-71 91-94 168l-16 55v216h217l7-97zm1492-191c-4-32-16-96-27-143l-20-84-45-93-45-93-67-68-67-67-55-32-55-31-80-22-80-22h-230l-65 17c-36 9-92 29-125 45l-60 28-55 50-55 51-32 53c-18 30-35 62-39 72l-6 18 132-7 133-7 42-42 42-42 54-19 54-19h210l66 32 66 33 43 46 42 45 35 74 35 74 21 106 20 105h220l-7-58z"/></g></g></svg>